<svg width="40" height="40" viewBox="4 5 31 32" fill="none" xmlns="http://www.w3.org/2000/svg"><path d="M18.0057 18.028V17.2342C17.7295 17.196 17.451 17.1764 17.1721 17.1753C13.7689 17.171 11 19.9421 11 23.3524C11 24.3461 11.2398 25.3251 11.699 26.2063C12.1582 27.0875 12.8233 27.8449 13.6377 28.4143C12.5706 27.2729 11.9777 25.7683 11.979 24.2059C11.979 20.8452 14.6706 18.1061 18.0057 18.0288V18.028Z" fill="#25F4EE"/><path d="M18.1558 27.0266C19.674 27.0266 20.9155 25.8155 20.9701 24.3094L20.9744 10.8527H23.4312C23.3798 10.5714 23.3537 10.286 23.3531 10H20.0003L19.996 23.4574C19.9687 24.186 19.6605 24.8758 19.1358 25.3822C18.6112 25.8886 17.9109 26.1723 17.1817 26.1738C16.725 26.1739 16.2753 26.0619 15.8721 25.8475C16.1311 26.2121 16.4736 26.5094 16.871 26.7145C17.2685 26.9196 17.7085 27.0266 18.1558 27.0266ZM28.0212 15.4201V14.6717C27.118 14.6732 26.2342 14.4098 25.4793 13.914C26.1409 14.6784 27.033 15.207 28.0212 15.4201Z" fill="#25F4EE"/><path d="M25.4791 13.9143C24.7382 13.0667 24.3308 11.9787 24.3326 10.853H23.4352C23.5495 11.4756 23.7897 12.0682 24.141 12.5947C24.4924 13.1212 24.9474 13.5704 25.4784 13.915L25.4791 13.9143ZM17.1765 20.5277C16.429 20.529 15.7125 20.8266 15.1842 21.3554C14.6558 21.8842 14.3587 22.6009 14.3579 23.3484C14.3579 24.4324 14.9744 25.376 15.8719 25.8478C15.5236 25.3694 15.3363 24.7928 15.3369 24.2011C15.3377 23.4536 15.6348 22.7369 16.1632 22.2082C16.6916 21.6794 17.408 21.3817 18.1555 21.3804C18.4457 21.3804 18.7266 21.4301 18.9891 21.5117V18.0829C18.7129 18.0448 18.4344 18.0251 18.1555 18.024C18.1059 18.024 18.0605 18.0283 18.0108 18.0283V20.6589C17.7408 20.5738 17.4596 20.5295 17.1765 20.5277Z" fill="#FE2C55"/><path d="M28.0209 15.4199V18.0278C26.2806 18.0278 24.6674 17.4702 23.3528 16.5266V23.3522C23.3528 26.7589 20.5845 29.5342 17.1764 29.5342C15.9096 29.5342 14.6737 29.143 13.6377 28.414C14.2145 29.036 14.9134 29.5322 15.6908 29.8717C16.4681 30.2112 17.3072 30.3866 18.1554 30.387C21.5586 30.387 24.3325 27.6159 24.3325 24.2049V17.3794C25.6923 18.3571 27.3251 18.8823 28.9999 18.8806V15.5249C28.6594 15.5249 28.333 15.488 28.0209 15.4199Z" fill="#FE2C55"/><path d="M23.353 23.3534V16.5271C24.713 17.5049 26.3461 18.0301 28.0211 18.0283V15.4204C27.0326 15.2074 26.1402 14.6788 25.4785 13.9143C24.948 13.5687 24.493 13.1194 24.1409 12.5932C23.7887 12.0671 23.5468 11.4752 23.4296 10.853H20.9742L20.97 24.3097C20.9428 25.0385 20.6346 25.7285 20.11 26.235C19.5853 26.7416 18.8849 27.0253 18.1556 27.0268C17.7083 27.0258 17.2677 26.9188 16.8697 26.7146C16.4718 26.5104 16.1279 26.2148 15.8662 25.852C15.4106 25.6123 15.029 25.253 14.7623 24.8126C14.4957 24.3722 14.3542 23.8675 14.353 23.3527C14.354 22.6053 14.6512 21.8887 15.1795 21.3601C15.7079 20.8315 16.4242 20.5339 17.1716 20.5326C17.4618 20.5326 17.7427 20.5823 18.0052 20.6639V18.0333C14.6701 18.1063 11.9785 20.8455 11.9785 24.2061C11.9785 25.8307 12.6085 27.3085 13.6372 28.4152C14.6731 29.1444 15.909 29.5359 17.1759 29.5361C20.5798 29.5361 23.353 26.7601 23.353 23.3541V23.3534Z" fill="#000"/></svg>